<svg width="17" height="16" viewBox="0 0 17 16" fill="none" xmlns="http://www.w3.org/2000/svg">
<g clip-path="url(#clip0_173_1080)">
<path fill-rule="evenodd" clip-rule="evenodd" d="M15.3843 4.09598L15.2677 3.89598C15.1172 3.65414 14.9049 3.45313 14.651 3.31199L9.05933 0.215999C8.80616 0.0749997 8.51875 0.000495998 8.226 0H7.98433C7.69158 0.000495998 7.40416 0.0749997 7.151 0.215999L1.55933 3.31999C1.3068 3.46019 1.09705 3.66156 0.950996 3.90398L0.834329 4.10398C0.687454 4.34705 0.609846 4.62297 0.609329 4.90398V11.104C0.609846 11.385 0.687454 11.6609 0.834329 11.9039L0.950996 12.1039C1.10082 12.3435 1.30974 12.5441 1.55933 12.6879L7.15933 15.7839C7.41125 15.9279 7.6995 16.0026 7.99266 15.9999H8.226C8.51875 15.9995 8.80616 15.925 9.05933 15.7839L14.651 12.6799C14.906 12.5429 15.1166 12.3407 15.2593 12.0959L15.3843 11.896C15.5294 11.6522 15.6069 11.3768 15.6093 11.096V4.89598C15.6088 4.61497 15.5312 4.33905 15.3843 4.09598ZM7.98433 1.59999H8.226L13.1093 4.30398L8.10933 7.07197L3.10933 4.30398L7.98433 1.59999ZM8.94266 13.9999L13.8177 11.296L13.9427 11.096V5.68798L8.94266 8.46396V13.9999Z" fill="black"/>
</g>
<defs>
<clipPath id="clip0_173_1080">
<rect width="16" height="16" fill="white" transform="translate(0.109329)"/>
</clipPath>
</defs>
</svg>
