<svg width="156" height="40" viewBox="0 0 156 40" fill="none" xmlns="http://www.w3.org/2000/svg">
<path d="M22.793 0.0162557C28.6571 0.0162557 34.5479 0.0162557 40.412 0.0162557C40.7585 0.0162557 41.1317 0.0429107 41.4782 0.0162557C43.5573 -0.196984 45.4764 1.72218 45.6897 3.74796C45.7163 4.01451 45.743 4.30771 45.743 4.57426C45.743 14.8631 45.743 25.1253 45.743 35.4141C45.743 36.2671 45.6097 37.0934 45.1832 37.8131C44.3836 39.1725 43.2641 40.0254 41.6381 39.9988C41.2916 39.9988 40.9184 39.9988 40.5719 39.9988C28.7371 39.9988 16.9289 39.9988 5.09407 39.9988C4.66759 39.9988 4.21446 39.9721 3.78797 39.9988C2.10871 40.0521 0.242857 38.3462 0.0296167 36.4537C0.00296163 36.1338 0.00296166 35.8139 0.00296166 35.4941C0.00296166 25.1786 0.00296166 14.8631 0.00296166 4.54761C0.00296166 4.12113 -0.0236933 3.66799 0.0829268 3.24151C0.456097 1.64221 1.5223 0.629321 3.04163 0.122876C3.36149 0.0162559 3.76132 0.0429108 4.10783 0.0429108C5.65383 0.0429108 7.19982 0.0429108 8.74581 0.0429108C13.4371 0.0162558 18.1284 0.0162557 22.793 0.0162557ZM22.9529 12.7574C18.5815 12.7574 14.2101 12.7574 9.86532 12.7574C9.5188 12.7574 9.14563 12.7574 8.79912 12.784C8.58588 12.8107 8.4526 12.9439 8.42595 13.1838C8.39929 13.3704 8.39929 13.557 8.39929 13.7702C8.39929 19.7143 8.39929 25.685 8.39929 31.6291C8.39929 31.9756 8.4526 32.3488 8.50591 32.6953C8.61253 33.1218 8.87908 33.3617 9.25225 33.5749C9.65208 33.7882 10.1052 33.7615 10.5317 33.7615C18.7414 33.7615 26.9778 33.7615 35.1876 33.7615C35.4541 33.7615 35.7473 33.7615 36.0139 33.7082C36.6536 33.6016 37.0801 33.2551 37.2134 32.562C37.2933 32.1622 37.2933 31.7624 37.2933 31.3892C37.2933 25.6051 37.2933 19.7943 37.2933 14.0101C37.2933 13.7436 37.2933 13.4504 37.2667 13.1838C37.24 12.9706 37.1068 12.8107 36.8935 12.8107C36.547 12.784 36.1738 12.784 35.8273 12.784C31.5358 12.7574 27.2444 12.7574 22.9529 12.7574ZM22.8463 11.7711C27.1644 11.7711 31.5092 11.7711 35.8273 11.7711C36.1738 11.7711 36.547 11.7711 36.8935 11.7445C37.1068 11.7178 37.2933 11.6112 37.2933 11.3713C37.2933 10.1718 37.2933 8.999 37.2933 7.79952C37.2933 7.63959 37.2134 7.50632 37.1601 7.34639C37.0268 6.75998 36.627 6.46677 36.0672 6.41346C35.6674 6.36015 35.2676 6.3868 34.8677 6.3868C26.8446 6.3868 18.8214 6.3868 10.8249 6.3868C10.5583 6.3868 10.2651 6.3868 9.9986 6.3868C8.95905 6.44011 8.50591 6.86659 8.39929 7.90614C8.37264 8.09273 8.39929 8.30597 8.39929 8.49255C8.39929 9.13227 8.39929 9.77199 8.39929 10.3851C8.39929 11.7711 8.29267 11.7445 9.7587 11.7445C14.1035 11.7711 18.4749 11.7711 22.8463 11.7711Z" fill="#48A3A3"/>
<path d="M60.6171 9.23898C62.2431 9.13236 63.7624 9.53218 65.1751 10.3052C65.4417 10.4651 65.7082 10.625 65.9748 10.8116C66.5612 11.1848 66.6945 11.7179 66.6145 12.3576C66.5345 12.9973 66.1081 13.3172 65.5749 13.5304C65.2551 13.6637 64.9619 13.6637 64.642 13.5304C64.2689 13.3705 63.8957 13.2372 63.5758 13.024C62.3763 12.251 61.0702 12.1177 59.6842 12.1977C59.2844 12.2243 58.9112 12.331 58.5647 12.5442C57.7917 12.9973 57.4185 13.8503 57.7384 14.6766C57.9516 15.3163 58.4847 15.6895 59.0978 15.9294C59.5243 16.116 60.0041 16.2226 60.4572 16.3559C61.63 16.7024 62.8295 17.0222 63.9756 17.4221C65.1485 17.8485 66.1614 18.5416 66.8277 19.6344C67.1209 20.1142 67.3075 20.6473 67.3075 21.2071C67.3075 22.0067 67.3875 22.7797 67.1209 23.5527C66.4812 25.4452 65.0685 26.5114 63.2027 27.0179C61.1236 27.551 59.1244 27.2578 57.1253 26.5381C56.1391 26.1916 55.2861 25.6052 54.4332 25.0454C53.8201 24.6456 53.6602 23.766 54.0067 23.1262C54.3798 22.4332 55.0729 22.1134 55.7926 22.2999C56.1124 22.3799 56.3523 22.5665 56.6189 22.7531C57.6051 23.4994 58.7246 24.0325 59.9507 24.2191C60.857 24.3524 61.7633 24.379 62.6429 24.0592C63.4959 23.7393 63.9756 23.0463 64.0023 22.1667C64.0023 21.367 63.6291 20.7806 62.9094 20.5141C62.1365 20.2208 61.3368 19.9276 60.5638 19.6877C59.7642 19.4479 58.9645 19.2613 58.1649 19.048C57.1253 18.7282 56.219 18.1951 55.446 17.3954C54.5664 16.4625 54.3532 15.3163 54.3798 14.0902C54.4332 11.2648 56.9654 9.37225 59.311 9.18567C59.7375 9.21232 60.164 9.23898 60.6171 9.23898Z" fill="#329D9A"/>
<path d="M109.262 9.18566C109.902 9.21231 110.541 9.21231 111.154 9.29228C112.567 9.45221 113.793 10.1186 114.939 10.9182C115.206 11.1048 115.393 11.3714 115.553 11.6379C115.952 12.2776 115.872 12.9174 115.366 13.5038C114.886 14.0369 114.166 14.1968 113.527 13.8503C113.074 13.6104 112.647 13.3172 112.194 13.0506C110.515 12.0111 108.729 11.9311 106.943 12.6242C105.557 13.1839 104.517 14.2501 103.984 15.6895C103.424 17.1822 103.371 18.6748 103.798 20.2208C104.331 22.1933 106.65 24.5923 109.688 24.2724C110.888 24.1391 111.901 23.7393 112.86 23.0463C113.074 22.8863 113.287 22.6998 113.527 22.5398C114.246 22.0334 114.913 22.14 115.526 22.833C116.032 23.3928 116.059 24.1658 115.579 24.7788C115.473 24.9121 115.366 25.0187 115.259 25.1254C113.687 26.4315 111.927 27.2578 109.848 27.3111C109.528 27.3111 109.209 27.3111 108.889 27.3111C106.57 27.391 104.624 26.5114 102.945 24.9921C101.452 23.6593 100.626 21.9534 100.199 19.9809C99.7727 17.9818 100.146 16.1426 100.892 14.3034C102.012 11.558 105.344 9.02573 108.569 9.18566C108.782 9.21231 109.022 9.21231 109.262 9.18566Z" fill="#329D9A"/>
<path d="M150.498 21.5801C149.459 21.5801 148.446 21.5801 147.406 21.5801C147.22 21.5801 147.006 21.5801 146.82 21.6068C146.473 21.6335 146.34 21.8467 146.393 22.1666C146.58 23.0728 147.14 23.7659 147.939 24.1657C149.485 24.912 151.005 24.7787 152.444 23.8192C152.631 23.6859 152.844 23.5526 153.03 23.446C153.777 23.0728 154.31 23.2328 154.736 23.9258C154.816 24.0591 154.896 24.1923 154.976 24.3256C155.11 24.5655 155.083 24.7787 154.923 24.992C154.71 25.3118 154.47 25.6584 154.15 25.8983C153.057 26.7512 151.831 27.2843 150.445 27.311C149.485 27.3376 148.552 27.3909 147.62 27.0711C145.167 26.2181 143.568 24.5655 143.088 22.0066C142.795 20.354 142.795 18.6481 143.595 17.1021C144.474 15.3962 145.727 14.0368 147.753 13.6636C148.286 13.557 148.792 13.2638 149.379 13.3171C151.431 13.5037 153.217 14.1167 154.496 15.9026C155.349 17.1021 155.696 18.3815 155.696 19.7943C155.723 20.8338 155.163 21.5002 154.043 21.5268C152.897 21.6068 151.698 21.5801 150.498 21.5801ZM149.432 19.3944C150.072 19.3944 150.711 19.3944 151.325 19.3944C151.644 19.3944 151.964 19.3944 152.284 19.3678C152.471 19.3411 152.577 19.2345 152.577 19.0479C152.524 17.6619 151.538 16.5157 150.418 16.1958C148.339 15.5828 146.607 16.9688 146.26 18.8347C146.207 19.1545 146.367 19.3678 146.713 19.3678C147.62 19.3944 148.526 19.3944 149.432 19.3944Z" fill="#329D9A"/>
<path d="M130.08 22.0599C130.08 23.1261 130.08 24.1923 130.08 25.2852C130.08 25.6584 130.053 26.0049 129.867 26.3247C129.253 27.3643 128.001 27.4709 127.174 26.5646C127.094 26.4847 127.041 26.378 126.961 26.2981C126.775 26.0848 126.561 26.0582 126.321 26.1915C126.108 26.2981 125.922 26.4313 125.708 26.5646C124.136 27.6308 121.23 27.7908 119.338 26.2714C118.591 25.685 118.112 24.8854 118.032 23.9524C117.978 23.3927 117.978 22.8329 118.032 22.2998C118.245 20.8338 119.151 19.8742 120.511 19.3678C121.817 18.8613 123.176 18.5948 124.589 18.8613C125.122 18.9679 125.682 19.0479 126.241 19.1279C126.695 19.1812 126.961 18.9146 126.854 18.5148C126.588 17.6885 126.188 17.0221 125.282 16.7023C124.402 16.4091 123.496 16.3558 122.59 16.5423C122.163 16.6223 121.737 16.7289 121.337 16.8622C121.017 16.9688 120.724 16.9955 120.404 16.9955C119.818 17.0221 119.444 16.7023 119.205 16.1958C118.965 15.6627 119.071 15.2096 119.418 14.7564C119.684 14.4366 120.057 14.2767 120.431 14.17C121.15 13.9835 121.897 13.7702 122.643 13.7702C123.069 13.7702 123.523 13.8235 123.922 13.6369C124.002 13.6103 124.082 13.5836 124.162 13.6103C124.802 13.8768 125.495 13.7436 126.161 13.8502C128.054 14.17 129.6 15.7693 129.946 17.6352C130.053 18.3016 130.16 18.9679 130.16 19.6343C130.08 20.4073 130.08 21.2336 130.08 22.0599ZM124.349 20.8338C123.523 20.8338 122.723 20.8871 121.95 21.3402C121.177 21.82 121.044 22.4598 121.097 23.2594C121.15 23.8458 121.417 24.2456 121.95 24.5655C123.496 25.4718 125.335 24.7787 126.241 23.9524C126.908 23.3394 127.041 22.5397 126.908 21.6601C126.881 21.4469 126.721 21.3402 126.535 21.2603C125.868 20.9138 125.122 20.8871 124.349 20.8338Z" fill="#329D9A"/>
<path d="M72.7708 31.1226C72.1045 31.2293 71.4381 30.9361 70.7717 30.7495C70.1853 30.5895 69.8921 30.0831 69.7588 29.5233C69.6256 28.9902 70.212 28.2172 70.7984 28.1106C71.0649 28.0573 71.3581 28.1106 71.6247 28.1106C71.9712 28.1373 72.3444 28.1373 72.6909 28.1906C73.4106 28.2705 73.8904 27.8974 74.2369 27.311C74.4501 26.9911 74.4768 26.6712 74.2902 26.2981C73.6771 24.8854 73.0907 23.446 72.451 22.0599C71.5447 20.0075 70.5851 17.9551 69.6522 15.9026C69.439 15.4495 69.4123 14.9964 69.5989 14.5166C69.8121 14.0368 70.1587 13.7702 70.6651 13.6903C70.8517 13.6636 71.0649 13.6903 71.2515 13.6636C71.8379 13.6369 72.2377 13.9035 72.4776 14.4366C72.7708 15.1296 73.0907 15.796 73.3839 16.489C74.1569 18.3549 74.9032 20.2207 75.6496 22.1132C75.7295 22.2998 75.8095 22.4864 75.9161 22.6463C75.9694 22.7263 76.1294 22.7796 76.2093 22.6463C76.3426 22.4064 76.4492 22.1399 76.5292 21.9C77.3289 19.8209 78.1018 17.7685 78.9015 15.6894C79.0614 15.2362 79.248 14.8098 79.4879 14.3833C79.8344 13.7169 80.7674 13.4504 81.567 13.7969C82.1534 14.0368 82.5266 14.7831 82.3133 15.4761C82.0734 16.2758 81.7536 17.0221 81.4337 17.7951C80.4208 20.1941 79.3813 22.593 78.3951 25.0186C77.9686 26.0582 77.5954 27.0977 77.1156 28.084C76.9024 28.5104 76.6891 28.9369 76.4226 29.3367C75.543 30.5629 74.3435 31.1759 72.7708 31.1226Z" fill="#329D9A"/>
<path d="M88.4178 14.9963C88.5777 14.9164 88.7376 14.8364 88.8176 14.7564C89.5906 13.9834 90.6035 13.7435 91.5631 13.4237C91.643 13.397 91.723 13.3704 91.803 13.3704C93.8288 13.4237 96.0944 14.1967 96.6808 16.6756C96.9207 17.6885 97.0274 18.7014 97.0274 19.7143C97.0274 21.5001 97.0007 23.286 97.0274 25.0719C97.0274 25.6583 96.8941 26.1648 96.5209 26.6179C95.9878 27.2843 94.9483 27.3376 94.3085 26.7512C93.9087 26.378 93.7221 25.9515 93.7221 25.3918C93.7488 23.5792 93.7221 21.74 93.7221 19.9275C93.7221 19.3411 93.6422 18.7547 93.5089 18.1683C93.1624 16.7289 91.4831 16.1158 90.2836 16.489C89.2708 16.8089 88.5244 17.3686 88.3378 18.5148C88.2579 18.9946 88.2045 19.4477 88.2045 19.9275C88.2045 21.74 88.1779 23.5792 88.2045 25.3918C88.2045 26.0581 87.9113 26.5379 87.4316 26.9111C86.7918 27.3909 85.7523 27.2043 85.3258 26.5379C85.0859 26.1648 84.9526 25.7649 84.9526 25.3118C84.9793 22.0066 84.9526 18.728 84.9526 15.4228C84.9526 15.3428 84.9526 15.2629 84.9526 15.1829C85.0593 14.5965 85.1925 13.9568 85.8589 13.7702C86.7119 13.5569 87.4049 13.5836 87.9113 14.2766C88.0713 14.4899 88.2312 14.7298 88.4178 14.9963Z" fill="#329D9A"/>
<path d="M133.438 20.3807C133.438 18.7814 133.438 17.2087 133.438 15.6094C133.438 15.3429 133.438 15.0497 133.465 14.7831C133.545 14.1967 133.998 13.7702 134.584 13.7169C134.851 13.6902 135.144 13.6902 135.411 13.7169C135.837 13.7436 136.157 13.9568 136.344 14.33C136.45 14.5432 136.557 14.7564 136.69 14.943C136.823 15.1296 137.037 15.1563 137.196 15.023C137.383 14.8897 137.516 14.6765 137.676 14.4899C138.316 13.7969 139.142 13.557 140.049 13.6369C140.662 13.6902 141.061 13.9835 141.301 14.5699C141.515 15.1563 141.408 15.6627 141.008 16.1159C140.795 16.3557 140.582 16.569 140.235 16.649C139.915 16.7289 139.622 16.8355 139.329 16.9155C138.369 17.2087 137.676 17.8484 137.25 18.7547C136.903 19.4744 136.69 20.2207 136.717 21.047C136.743 22.2732 136.717 23.4993 136.717 24.7254C136.717 25.3385 136.583 25.8982 136.29 26.4313C135.89 27.1244 135.144 27.231 134.531 27.0977C133.945 26.9644 133.465 26.378 133.438 25.7117C133.411 25.1252 133.438 24.5122 133.438 23.9258C133.438 22.753 133.438 21.5535 133.438 20.3807Z" fill="#329D9A"/>
<path d="M22.9529 12.7574C27.2443 12.7574 31.5358 12.7574 35.8006 12.7574C36.1471 12.7574 36.5203 12.7574 36.8668 12.784C37.08 12.8107 37.2399 12.944 37.2399 13.1572C37.2666 13.4237 37.2666 13.7169 37.2666 13.9835C37.2666 19.7676 37.2666 25.5784 37.2666 31.3626C37.2666 31.7624 37.2666 32.1622 37.1866 32.5354C37.0534 33.2284 36.6269 33.5483 35.9872 33.6816C35.7206 33.7349 35.4274 33.7349 35.1609 33.7349C26.9511 33.7349 18.7147 33.7349 10.505 33.7349C10.0785 33.7349 9.62534 33.7615 9.22552 33.5483C8.85235 33.3617 8.5858 33.1218 8.47918 32.6687C8.39921 32.3221 8.37256 31.9756 8.37256 31.6025C8.37256 25.6584 8.37256 19.6877 8.37256 13.7436C8.37256 13.557 8.37256 13.3438 8.39921 13.1572C8.42587 12.944 8.55914 12.784 8.77238 12.7574C9.1189 12.7307 9.49207 12.7307 9.83858 12.7307C14.2367 12.7574 18.5814 12.7574 22.9529 12.7574ZM22.7929 17.1288C22.7929 17.1554 22.7929 17.1554 22.7929 17.1288C22.3131 17.1288 21.8333 17.1288 21.3536 17.1288C20.8471 17.1554 20.6605 17.342 20.6072 17.8751C20.5806 18.115 20.5806 18.3549 20.5806 18.5948C20.5539 19.3145 20.6605 20.0342 20.5006 20.7272C19.8076 21.1537 19.0346 20.8605 18.2882 20.9405C18.0483 20.9671 17.8084 20.9405 17.5685 20.9671C17.0088 21.0471 16.6889 21.3403 16.6623 21.9C16.6356 22.7797 16.6356 23.6593 16.6623 24.5122C16.6623 24.9121 16.9288 25.152 17.3286 25.2586C17.4886 25.2852 17.6485 25.3119 17.8084 25.3119C18.0483 25.3119 18.2882 25.3119 18.5281 25.3119C20.9004 25.3385 20.5539 24.992 20.5806 27.4176C20.5806 27.6575 20.5806 27.8974 20.5806 28.1373C20.5806 28.2439 20.5806 28.3772 20.6072 28.4838C20.6605 28.937 20.8471 29.1235 21.3002 29.1502C22.0199 29.1769 22.7396 29.1769 23.4326 29.1502C24.6588 29.1502 24.7921 28.9903 24.8187 27.7908C24.8187 27.2044 24.8187 26.5913 24.8187 26.0049C24.8454 25.4452 24.952 25.3385 25.5384 25.3119C26.0448 25.2852 26.5779 25.3119 27.0844 25.3119C27.3243 25.3119 27.5642 25.3119 27.8041 25.3119C28.3638 25.2586 28.6037 25.0453 28.6304 24.4856C28.657 23.606 28.657 22.7263 28.6304 21.8734C28.6037 21.207 28.3372 20.9938 27.6441 20.9671C27.1643 20.9405 26.6846 20.9671 26.2048 20.9671C25.9382 20.9671 25.645 20.9671 25.3785 20.9405C25.0053 20.9138 24.872 20.7805 24.8454 20.434C24.8187 20.1941 24.8187 19.9542 24.8187 19.7143C24.8187 19.2345 24.8187 18.7547 24.8187 18.275C24.7921 17.2887 24.6321 17.1288 23.5926 17.1288C23.3527 17.1288 23.0595 17.1288 22.7929 17.1288Z" fill="white"/>
<path d="M22.8457 11.7711C18.4743 11.7711 14.1029 11.7711 9.7581 11.7711C8.29207 11.7711 8.39869 11.7978 8.39869 10.4117C8.39869 9.77199 8.39869 9.13227 8.39869 8.5192C8.39869 8.33262 8.39869 8.11938 8.39869 7.93279C8.50531 6.89325 8.95845 6.46677 9.99799 6.41346C10.2645 6.3868 10.5577 6.41346 10.8243 6.41346C18.8475 6.41346 26.8706 6.41346 34.8671 6.41346C35.267 6.41346 35.6668 6.41346 36.0666 6.44011C36.6264 6.49342 37.0262 6.81328 37.1595 7.37304C37.1861 7.53297 37.2927 7.66624 37.2927 7.82617C37.2927 9.02565 37.2927 10.1985 37.2927 11.3979C37.2927 11.6112 37.1061 11.7445 36.8929 11.7711C36.5464 11.7978 36.1732 11.7978 35.8267 11.7978C31.4819 11.7711 27.1638 11.7711 22.8457 11.7711ZM32.6281 9.50544C32.6814 8.62582 31.9617 7.79952 31.0821 7.74621C30.2558 7.6929 29.4028 8.46589 29.3229 9.31885C29.2696 10.0652 30.0159 10.9448 30.8422 11.0248C31.6952 11.1314 32.5748 10.3851 32.6281 9.50544ZM21.2464 9.37216C21.2198 10.2784 21.9661 11.0248 22.8724 11.0248C23.6987 11.0248 24.445 10.2518 24.445 9.42547C24.445 8.27931 23.752 7.71955 22.8724 7.77286C21.8328 7.82617 21.2464 8.226 21.2464 9.37216ZM13.09 9.45213C12.9567 10.2251 14.0229 11.0514 14.6893 11.0514C15.4889 11.0514 16.2619 10.2784 16.2886 9.45213C16.2886 8.49255 15.6222 7.77286 14.6893 7.77286C13.783 7.74621 13.09 8.49255 13.09 9.45213Z" fill="#F7FBFB"/>
<path d="M22.7924 17.1288C23.059 17.1288 23.3522 17.1288 23.6188 17.1288C24.6583 17.1554 24.8182 17.2887 24.8449 18.2749C24.8449 18.7547 24.8449 19.2345 24.8449 19.7143C24.8449 19.9542 24.8449 20.1941 24.8715 20.434C24.8982 20.7805 25.0315 20.9138 25.4046 20.9405C25.6712 20.9671 25.9644 20.9671 26.2309 20.9671C26.7107 20.9671 27.1905 20.9671 27.6703 20.9671C28.3633 20.9938 28.6299 21.207 28.6566 21.8734C28.6832 22.753 28.6832 23.6326 28.6566 24.4856C28.6299 25.0187 28.39 25.2586 27.8302 25.3119C27.5904 25.3385 27.3505 25.3119 27.1106 25.3119C26.6041 25.3119 26.071 25.3119 25.5646 25.3119C24.9782 25.3385 24.8449 25.4185 24.8449 26.0049C24.8182 26.5913 24.8449 27.2044 24.8449 27.7908C24.8182 29.0169 24.685 29.1502 23.4588 29.1502C22.7391 29.1502 22.0195 29.1502 21.3264 29.1502C20.8733 29.1235 20.6867 28.937 20.6334 28.4838C20.6067 28.3772 20.6067 28.2439 20.6067 28.1373C20.6067 27.8974 20.6067 27.6575 20.6067 27.4176C20.5801 24.992 20.8999 25.3385 18.5543 25.3119C18.3144 25.3119 18.0745 25.3119 17.8346 25.3119C17.6747 25.3119 17.5148 25.2852 17.3548 25.2586C16.9817 25.1519 16.7151 24.912 16.6884 24.5122C16.6618 23.6326 16.6618 22.753 16.6884 21.9C16.7151 21.3403 17.0083 21.0471 17.5947 20.9671C17.8346 20.9405 18.0745 20.9671 18.3144 20.9405C19.0341 20.8605 19.8071 21.1537 20.5268 20.7272C20.7134 20.0342 20.5801 19.3145 20.6067 18.5948C20.6067 18.3549 20.6067 18.115 20.6334 17.8751C20.6867 17.342 20.8733 17.1554 21.3797 17.1288C21.8329 17.1288 22.3127 17.1554 22.7924 17.1288C22.7924 17.1554 22.7924 17.1554 22.7924 17.1288ZM22.7658 18.1683C22.5259 18.1683 22.286 18.1683 22.0461 18.1683C21.7796 18.195 21.6196 18.3283 21.593 18.6215C21.593 18.8614 21.593 19.1013 21.593 19.3411C21.593 20.0075 21.593 20.7006 21.5663 21.3669C21.5397 21.7401 21.3531 21.9533 20.9799 22.0067C20.66 22.0333 20.3402 22.0333 20.0203 22.0333C19.4606 22.0333 18.9008 22.0333 18.3677 22.06C18.1278 22.06 17.8613 22.1666 17.808 22.4065C17.7013 22.9396 17.5681 23.5526 17.8613 24.0324C18.1012 24.4589 18.6609 24.219 19.0874 24.2723C19.2473 24.299 19.4073 24.2723 19.5672 24.2723C20.047 24.2723 20.5268 24.2723 20.9799 24.3256C21.3531 24.3523 21.5397 24.5655 21.5663 24.9654C21.593 25.5251 21.5663 26.0849 21.593 26.618C21.593 26.9645 21.593 27.3377 21.6196 27.6842C21.6463 28.0307 21.8062 28.164 22.1527 28.1906C22.2593 28.2173 22.3926 28.1906 22.4992 28.2173C23.7254 28.2439 23.752 28.2173 23.7787 26.9911C23.7787 26.3248 23.7787 25.6317 23.8053 24.9654C23.832 24.5122 24.0186 24.3256 24.4717 24.299C25.0315 24.2723 25.5912 24.2723 26.1243 24.2723C27.7236 24.2723 27.6437 24.3789 27.5904 22.673C27.5637 22.2199 27.4038 22.0866 26.8973 22.06C26.3109 22.0333 25.6978 22.06 25.1114 22.06C23.8053 22.06 23.8053 22.06 23.7787 20.7272C23.7787 20.0608 23.7787 19.3678 23.7787 18.7014C23.7787 18.3549 23.6188 18.2216 23.2456 18.195C23.0857 18.1683 22.9257 18.1683 22.7658 18.1683Z" fill="#329D9A"/>
<path d="M32.6291 9.50545C32.5758 10.3851 31.7228 11.1314 30.8432 11.0248C30.0436 10.9448 29.2706 10.0652 29.3239 9.31887C29.4039 8.43925 30.2568 7.69291 31.0831 7.74622C31.9361 7.79953 32.6824 8.62584 32.6291 9.50545ZM31.0032 8.75911C30.71 8.73246 30.3901 8.99901 30.3634 9.31887C30.3368 9.63873 30.5767 9.90528 30.9499 9.93193C31.2964 9.95859 31.6162 9.69204 31.6162 9.39883C31.5896 9.10563 31.2964 8.78577 31.0032 8.75911Z" fill="#329D9A"/>
<path d="M21.2458 9.37219C21.2458 8.22602 21.8589 7.8262 22.8718 7.77289C23.7514 7.71958 24.4444 8.27933 24.4444 9.4255C24.4444 10.2518 23.6714 11.0248 22.8718 11.0248C21.9655 11.0515 21.2192 10.3051 21.2458 9.37219ZM23.5115 9.45215C23.5381 9.07898 23.2449 8.78578 22.8451 8.75912C22.5253 8.75912 22.2054 9.02567 22.1787 9.31888C22.1787 9.69205 22.4719 9.98526 22.8451 10.0119C23.1916 10.0119 23.4848 9.77201 23.5115 9.45215Z" fill="#329D9A"/>
<path d="M13.091 9.45214C13.091 8.49256 13.784 7.77287 14.6903 7.74622C15.6232 7.74622 16.2896 8.43925 16.2896 9.42548C16.2896 10.2518 15.4899 11.0248 14.6903 11.0248C14.0239 11.0248 12.9577 10.2251 13.091 9.45214ZM15.33 9.34552C15.3034 9.02566 15.0101 8.75911 14.7169 8.78576C14.3438 8.81242 14.0239 9.13228 14.0506 9.45214C14.0772 9.772 14.4237 10.0385 14.7969 10.0119C15.1168 9.95858 15.33 9.66538 15.33 9.34552Z" fill="#329D9A"/>
<path d="M22.7666 18.1683C22.9266 18.1683 23.0865 18.1683 23.2464 18.1683C23.6196 18.1949 23.7529 18.3015 23.7795 18.6747C23.8062 19.3411 23.7795 20.0341 23.7795 20.7005C23.7795 22.0066 23.7795 22.0332 25.1123 22.0332C25.6987 22.0332 26.3118 22.0332 26.8982 22.0332C27.4046 22.0599 27.5912 22.1932 27.5912 22.6463C27.6445 24.3522 27.7245 24.2456 26.1252 24.2456C25.5654 24.2456 25.0057 24.2456 24.4726 24.2723C24.0194 24.2989 23.8328 24.4855 23.8062 24.9386C23.7795 25.605 23.8062 26.298 23.7795 26.9644C23.7795 28.1905 23.7262 28.2439 22.5001 28.1905C22.3935 28.1905 22.2602 28.1905 22.1536 28.1639C21.8071 28.1106 21.6471 27.9773 21.6205 27.6574C21.5938 27.3109 21.5938 26.9378 21.5938 26.5912C21.5938 26.0315 21.5938 25.4717 21.5672 24.9386C21.5405 24.5655 21.3539 24.3522 20.9808 24.2989C20.501 24.2456 20.0212 24.2723 19.568 24.2456C19.4081 24.2456 19.2482 24.2723 19.0882 24.2456C18.6618 24.1923 18.1287 24.4322 17.8621 24.0057C17.5689 23.5259 17.7022 22.9129 17.8088 22.3797C17.8621 22.1132 18.102 22.0332 18.3686 22.0332C18.9283 22.0066 19.4881 22.0332 20.0212 22.0066C20.341 22.0066 20.6609 22.0066 20.9808 21.9799C21.3539 21.9533 21.5405 21.74 21.5672 21.3402C21.5938 20.6738 21.5938 19.9808 21.5938 19.3144C21.5938 19.0745 21.5938 18.8346 21.5938 18.5947C21.5938 18.3015 21.7538 18.1683 22.047 18.1416C22.2869 18.1683 22.5267 18.1683 22.7666 18.1683Z" fill="#F7FBFB"/>
<path d="M31.0017 8.75916C31.2949 8.78581 31.5881 9.10567 31.5881 9.39888C31.5881 9.69208 31.2949 9.95863 30.9217 9.93198C30.5752 9.90532 30.3087 9.63877 30.3353 9.31891C30.3886 9.02571 30.7085 8.75916 31.0017 8.75916Z" fill="#F7FBFB"/>
<path d="M23.5139 9.45219C23.4872 9.74539 23.194 10.0119 22.8475 10.0119C22.4744 10.0119 22.1812 9.71874 22.1812 9.31891C22.1812 9.02571 22.501 8.75916 22.8475 8.75916C23.2474 8.78581 23.5406 9.10567 23.5139 9.45219Z" fill="#F7FBFB"/>
<path d="M15.3282 9.34553C15.3549 9.69205 15.115 9.98525 14.8218 10.0119C14.4486 10.0386 14.1021 9.79867 14.0754 9.45215C14.0488 9.13229 14.342 8.81243 14.7418 8.78578C15.0083 8.75912 15.3015 9.02567 15.3282 9.34553Z" fill="#F7FBFB"/>
</svg>
