<svg width="25" height="18" viewBox="0 0 25 18" fill="none" xmlns="http://www.w3.org/2000/svg">
<path d="M19.4258 16.8276C19.707 17.1001 20.1377 17.1177 20.4189 16.8276C20.709 16.5288 20.6914 16.1069 20.4189 15.8345L5.53027 0.963379C5.2666 0.690918 4.80957 0.682129 4.53711 0.963379C4.27344 1.22705 4.27344 1.68408 4.53711 1.94775L19.4258 16.8276ZM12.5 1.46436C10.9707 1.46436 9.58203 1.72803 8.29004 2.1499L9.69629 3.55615C10.584 3.30127 11.5068 3.15186 12.5 3.15186C18.1162 3.15186 22.5811 8.03857 22.5811 9.06689C22.5811 9.76123 21.1572 11.5542 18.8984 12.9692L20.1992 14.2788C22.959 12.4683 24.5674 10.104 24.5674 9.06689C24.5674 7.26514 19.707 1.46436 12.5 1.46436ZM12.5 16.6782C14.126 16.6782 15.6113 16.397 16.9561 15.9312L15.5586 14.5337C14.6006 14.8149 13.5898 14.9907 12.5 14.9907C6.88379 14.9907 2.41895 10.2974 2.41895 9.06689C2.41895 8.47803 3.91309 6.5708 6.32129 5.09424L4.99414 3.76709C2.12012 5.59521 0.423828 8.01221 0.423828 9.06689C0.423828 10.8687 5.38965 16.6782 12.5 16.6782ZM16.8857 10.7632C17.1143 10.2446 17.2461 9.66455 17.2461 9.06689C17.2461 6.42139 15.1367 4.33838 12.5 4.33838C11.8936 4.33838 11.3223 4.45264 10.7949 4.67236L16.8857 10.7632ZM12.5 13.8042C13.1855 13.8042 13.8271 13.646 14.3984 13.3735L8.18457 7.15088C7.90332 7.73096 7.74512 8.37256 7.74512 9.07568C7.75391 11.6509 9.85449 13.8042 12.5 13.8042Z" fill="black"/>
</svg>
