<svg width="26" height="16" viewBox="0 0 26 16" fill="none" xmlns="http://www.w3.org/2000/svg">
<path d="M13 15.2744C20.207 15.2744 25.0674 9.46484 25.0674 7.66309C25.0674 5.86133 20.1982 0.0605469 13 0.0605469C5.89844 0.0605469 0.923828 5.86133 0.923828 7.66309C0.923828 9.46484 5.88965 15.2744 13 15.2744ZM13 13.5869C7.38379 13.5869 2.91895 8.89355 2.91895 7.66309C2.91895 6.63477 7.38379 1.74805 13 1.74805C18.6074 1.74805 23.0811 6.63477 23.0811 7.66309C23.0811 8.89355 18.6074 13.5869 13 13.5869ZM13 12.4004C15.6367 12.4004 17.7461 10.2471 17.7461 7.66309C17.7461 5.01758 15.6367 2.93457 13 2.93457C10.3545 2.93457 8.23633 5.01758 8.24512 7.66309C8.2627 10.2471 10.3545 12.4004 13 12.4004ZM13 9.19238C12.1475 9.19238 11.4531 8.50684 11.4531 7.66309C11.4531 6.81934 12.1475 6.13379 13 6.13379C13.8525 6.13379 14.5381 6.81934 14.5381 7.66309C14.5381 8.50684 13.8525 9.19238 13 9.19238Z" fill="#1C1C1E"/>
</svg>
