<svg width="108" height="36" viewBox="0 0 108 36" fill="none" xmlns="http://www.w3.org/2000/svg">
<g filter="url(#filter0_d_1_2213)">
<path d="M29.5432 18.7716L28.2531 9.83498C27.9216 7.53665 25.9213 5.83331 23.5658 5.83331H12.842C10.4865 5.83331 8.48618 7.53665 8.15476 9.83498L6.86459 18.7716C6.60418 20.5683 8.01272 22.1666 9.84737 22.1666C10.6523 22.1666 11.4098 21.8516 11.9779 21.2916L14.653 18.6666H21.7548L24.418 21.2916C24.9862 21.8516 25.7556 22.1666 26.5486 22.1666C28.3951 22.1666 29.8036 20.5683 29.5432 18.7716ZM17.0203 12.8333H14.653V15.1666H13.4693V12.8333H11.102V11.6666H13.4693V9.33331H14.653V11.6666H17.0203V12.8333ZM21.7548 11.6666C21.1038 11.6666 20.5712 11.1416 20.5712 10.5C20.5712 9.85831 21.1038 9.33331 21.7548 9.33331C22.4058 9.33331 22.9385 9.85831 22.9385 10.5C22.9385 11.1416 22.4058 11.6666 21.7548 11.6666ZM24.1221 15.1666C23.4711 15.1666 22.9385 14.6416 22.9385 14C22.9385 13.3583 23.4711 12.8333 24.1221 12.8333C24.7731 12.8333 25.3058 13.3583 25.3058 14C25.3058 14.6416 24.7731 15.1666 24.1221 15.1666Z" fill="#2A7AE4"/>
<path d="M76.7733 17.92C75.9684 18.7133 75.031 19.11 73.961 19.11C73.2981 19.11 72.6732 18.9793 72.0861 18.718C71.5085 18.4567 71.0019 18.0973 70.5663 17.64C70.1402 17.1827 69.7993 16.646 69.5436 16.03C69.2974 15.4047 69.1743 14.7327 69.1743 14.014C69.1743 13.3327 69.2974 12.6933 69.5436 12.096C69.7993 11.4893 70.1449 10.962 70.5805 10.514C71.0255 10.0567 71.5463 9.69734 72.1429 9.43601C72.7395 9.16534 73.3881 9.03001 74.0888 9.03001C75.0357 9.03001 75.8453 9.22601 76.5177 9.61801C77.1994 10.01 77.7108 10.5373 78.0517 11.2L76.5887 12.264C76.333 11.7693 75.9732 11.3913 75.5092 11.13C75.0547 10.8687 74.5575 10.738 74.0178 10.738C73.5917 10.738 73.1987 10.8267 72.8389 11.004C72.4885 11.1813 72.1855 11.424 71.9298 11.732C71.6836 12.04 71.4895 12.3947 71.3475 12.796C71.2149 13.1973 71.1486 13.622 71.1486 14.07C71.1486 14.5367 71.2244 14.9753 71.3759 15.386C71.5274 15.7873 71.7357 16.1373 72.0009 16.436C72.266 16.7347 72.5785 16.9727 72.9383 17.15C73.3076 17.318 73.7053 17.402 74.1314 17.402C75.1067 17.402 75.9874 16.9493 76.7733 16.044V15.344H74.7422V13.93H78.3925V19.04H76.7733V17.92Z" fill="#464646"/>
<path d="M83.3299 19.18C82.7333 19.18 82.1936 19.082 81.7107 18.886C81.2277 18.6807 80.8158 18.4053 80.4749 18.06C80.1341 17.7147 79.8689 17.3133 79.6795 16.856C79.4996 16.3987 79.4097 15.918 79.4097 15.414C79.4097 14.8913 79.4996 14.4013 79.6795 13.944C79.8595 13.4773 80.1199 13.0713 80.4607 12.726C80.8016 12.3713 81.2135 12.0913 81.6965 11.886C82.1889 11.6807 82.7381 11.578 83.3441 11.578C83.9501 11.578 84.4899 11.6807 84.9633 11.886C85.4463 12.0913 85.8534 12.3667 86.1849 12.712C86.5257 13.0573 86.7814 13.4587 86.9519 13.916C87.1318 14.3733 87.2217 14.8493 87.2217 15.344C87.2217 15.4653 87.217 15.582 87.2075 15.694C87.2075 15.806 87.1981 15.8993 87.1791 15.974H81.4266C81.455 16.2633 81.526 16.52 81.6397 16.744C81.7533 16.968 81.9001 17.1593 82.08 17.318C82.2599 17.4767 82.4635 17.598 82.6907 17.682C82.918 17.766 83.1547 17.808 83.4009 17.808C83.7797 17.808 84.1348 17.7193 84.4662 17.542C84.8071 17.3553 85.0391 17.1127 85.1622 16.814L86.7956 17.262C86.521 17.822 86.0807 18.284 85.4747 18.648C84.8781 19.0027 84.1632 19.18 83.3299 19.18ZM85.2616 14.756C85.2143 14.2053 85.0059 13.7667 84.6366 13.44C84.2768 13.104 83.8365 12.936 83.3157 12.936C83.06 12.936 82.8186 12.9827 82.5913 13.076C82.3735 13.16 82.1794 13.2813 82.009 13.44C81.8385 13.5987 81.6965 13.79 81.5828 14.014C81.4787 14.238 81.4171 14.4853 81.3982 14.756H85.2616Z" fill="#464646"/>
<path d="M91.8327 19.18C91.2362 19.18 90.6964 19.082 90.2135 18.886C89.7306 18.6807 89.3187 18.4053 88.9778 18.06C88.6369 17.7147 88.3718 17.3133 88.1824 16.856C88.0025 16.3987 87.9125 15.918 87.9125 15.414C87.9125 14.8913 88.0025 14.4013 88.1824 13.944C88.3623 13.4773 88.6227 13.0713 88.9636 12.726C89.3045 12.3713 89.7164 12.0913 90.1993 11.886C90.6917 11.6807 91.2409 11.578 91.8469 11.578C92.453 11.578 92.9927 11.6807 93.4662 11.886C93.9491 12.0913 94.3563 12.3667 94.6877 12.712C95.0286 13.0573 95.2842 13.4587 95.4547 13.916C95.6346 14.3733 95.7246 14.8493 95.7246 15.344C95.7246 15.4653 95.7198 15.582 95.7104 15.694C95.7104 15.806 95.7009 15.8993 95.6819 15.974H89.9294C89.9578 16.2633 90.0289 16.52 90.1425 16.744C90.2561 16.968 90.4029 17.1593 90.5828 17.318C90.7627 17.4767 90.9663 17.598 91.1936 17.682C91.4208 17.766 91.6576 17.808 91.9038 17.808C92.2825 17.808 92.6376 17.7193 92.969 17.542C93.3099 17.3553 93.5419 17.1127 93.665 16.814L95.2984 17.262C95.0238 17.822 94.5835 18.284 93.9775 18.648C93.3809 19.0027 92.666 19.18 91.8327 19.18ZM93.7644 14.756C93.7171 14.2053 93.5088 13.7667 93.1395 13.44C92.7796 13.104 92.3393 12.936 91.8185 12.936C91.5629 12.936 91.3214 12.9827 91.0941 13.076C90.8763 13.16 90.6822 13.2813 90.5118 13.44C90.3413 13.5987 90.1993 13.79 90.0857 14.014C89.9815 14.238 89.92 14.4853 89.901 14.756H93.7644Z" fill="#464646"/>
<path d="M101.969 19.04L99.81 15.862L98.7874 16.856V19.04H96.8841V8.82001H98.7874V15.022L101.77 11.718H103.801L101.032 14.826L104 19.04H101.969Z" fill="#464646"/>
<path d="M36.2569 9.10001H37.9898L41.8248 19.04H39.8079L38.8704 16.562H35.3479L34.4246 19.04H32.4077L36.2569 9.10001ZM38.5153 15.204L37.1234 11.298L35.6746 15.204H38.5153Z" fill="#2A7AE4"/>
<path d="M42.7321 8.82001H44.6354V16.688C44.6354 16.9587 44.7016 17.1687 44.8342 17.318C44.9668 17.4673 45.1562 17.542 45.4024 17.542C45.516 17.542 45.6391 17.5233 45.7717 17.486C45.9137 17.4487 46.0463 17.402 46.1694 17.346L46.425 18.774C46.1694 18.8953 45.8711 18.9887 45.5302 19.054C45.1893 19.1193 44.8816 19.152 44.607 19.152C44.0104 19.152 43.5464 18.998 43.215 18.69C42.893 18.3727 42.7321 17.9247 42.7321 17.346V8.82001Z" fill="#2A7AE4"/>
<path d="M49.5269 19.18C48.7599 19.18 48.1775 18.9373 47.7798 18.452C47.3821 17.9667 47.1833 17.248 47.1833 16.296V11.704H49.0866V15.89C49.0866 17.0193 49.4985 17.584 50.3223 17.584C50.6916 17.584 51.0467 17.4767 51.3876 17.262C51.7379 17.038 52.022 16.702 52.2398 16.254V11.704H54.1431V16.884C54.1431 17.08 54.1762 17.22 54.2425 17.304C54.3183 17.388 54.4367 17.4347 54.5976 17.444V19.04C54.4082 19.0773 54.2473 19.1007 54.1147 19.11C53.9916 19.1193 53.878 19.124 53.7738 19.124C53.4329 19.124 53.1536 19.0493 52.9358 18.9C52.7275 18.7413 52.6044 18.5267 52.5665 18.256L52.5239 17.668C52.1925 18.172 51.7663 18.55 51.2455 18.802C50.7247 19.054 50.1519 19.18 49.5269 19.18Z" fill="#2A7AE4"/>
<path d="M60.4661 13.328C59.8885 13.3373 59.3724 13.4493 58.9179 13.664C58.4634 13.8693 58.1367 14.182 57.9378 14.602V19.04H56.0345V11.704H57.7816V13.272C57.9142 13.02 58.0704 12.796 58.2503 12.6C58.4302 12.3947 58.6244 12.2173 58.8327 12.068C59.041 11.9187 59.2493 11.8067 59.4576 11.732C59.6754 11.648 59.8837 11.606 60.0826 11.606C60.1868 11.606 60.2625 11.606 60.3099 11.606C60.3667 11.606 60.4188 11.6107 60.4661 11.62V13.328Z" fill="#2A7AE4"/>
<path d="M63.4614 19.18C63.1016 19.18 62.7654 19.124 62.453 19.012C62.1405 18.8907 61.8706 18.7273 61.6433 18.522C61.4161 18.3073 61.2362 18.06 61.1036 17.78C60.9805 17.5 60.919 17.192 60.919 16.856C60.919 16.5107 60.9947 16.1933 61.1462 15.904C61.3072 15.6053 61.525 15.3533 61.7996 15.148C62.0837 14.9427 62.4198 14.784 62.8081 14.672C63.1963 14.5507 63.6224 14.49 64.0864 14.49C64.4178 14.49 64.7398 14.518 65.0522 14.574C65.3742 14.63 65.6583 14.7093 65.9045 14.812V14.392C65.9045 13.9067 65.7624 13.5333 65.4784 13.272C65.2038 13.0107 64.7918 12.88 64.2426 12.88C63.8449 12.88 63.4567 12.95 63.0779 13.09C62.6992 13.23 62.3109 13.4353 61.9132 13.706L61.3309 12.516C62.2873 11.8907 63.3194 11.578 64.4273 11.578C65.4973 11.578 66.3258 11.8393 66.9129 12.362C67.5095 12.8753 67.8078 13.622 67.8078 14.602V16.884C67.8078 17.08 67.8409 17.22 67.9072 17.304C67.983 17.388 68.1013 17.4347 68.2623 17.444V19.04C67.9403 19.1053 67.661 19.138 67.4243 19.138C67.0644 19.138 66.7851 19.0587 66.5863 18.9C66.3969 18.7413 66.2785 18.5313 66.2312 18.27L66.1885 17.864C65.8571 18.2933 65.4547 18.62 64.9812 18.844C64.5078 19.068 64.0012 19.18 63.4614 19.18ZM64.0012 17.808C64.3231 17.808 64.6261 17.752 64.9102 17.64C65.2038 17.528 65.431 17.3787 65.592 17.192C65.8003 17.0333 65.9045 16.856 65.9045 16.66V15.82C65.6772 15.736 65.431 15.6707 65.1659 15.624C64.9007 15.568 64.6451 15.54 64.3989 15.54C63.9065 15.54 63.504 15.652 63.1916 15.876C62.8791 16.0907 62.7228 16.366 62.7228 16.702C62.7228 17.0193 62.8459 17.2853 63.0921 17.5C63.3383 17.7053 63.6413 17.808 64.0012 17.808Z" fill="#2A7AE4"/>
</g>
<defs>
<filter id="filter0_d_1_2213" x="0" y="0" width="108" height="36" filterUnits="userSpaceOnUse" color-interpolation-filters="sRGB">
<feFlood flood-opacity="0" result="BackgroundImageFix"/>
<feColorMatrix in="SourceAlpha" type="matrix" values="0 0 0 0 0 0 0 0 0 0 0 0 0 0 0 0 0 0 127 0" result="hardAlpha"/>
<feOffset dy="4"/>
<feGaussianBlur stdDeviation="2"/>
<feComposite in2="hardAlpha" operator="out"/>
<feColorMatrix type="matrix" values="0 0 0 0 0 0 0 0 0 0 0 0 0 0 0 0 0 0 0.25 0"/>
<feBlend mode="normal" in2="BackgroundImageFix" result="effect1_dropShadow_1_2213"/>
<feBlend mode="normal" in="SourceGraphic" in2="effect1_dropShadow_1_2213" result="shape"/>
</filter>
</defs>
</svg>
